<svg xmlns="http://www.w3.org/2000/svg" viewBox="0 0 960 640">
  <rect width="960" height="640" rx="36" fill="#081526" />
  <rect x="42" y="42" width="876" height="556" rx="28" fill="#10233c" stroke="#24445f" />
  <rect x="92" y="96" width="260" height="48" rx="24" fill="#68b4ff" opacity=".18" />
  <rect x="92" y="188" width="220" height="160" rx="24" fill="#122944" />
  <rect x="340" y="188" width="220" height="160" rx="24" fill="#122944" />
  <rect x="588" y="188" width="280" height="160" rx="24" fill="#122944" />
  <rect x="92" y="380" width="776" height="168" rx="24" fill="#0c1b2f" />
  <text x="150" y="278" fill="#ffffff" font-size="72" font-family="Noto Sans TC, PingFang TC, Microsoft JhengHei, sans-serif" font-weight="700">92</text>
  <text x="396" y="278" fill="#ffffff" font-size="54" font-family="Noto Sans TC, PingFang TC, Microsoft JhengHei, sans-serif" font-weight="700">PASS</text>
  <rect x="626" y="224" width="180" height="24" rx="12" fill="#1fc7b3" opacity=".82" />
  <rect x="626" y="268" width="150" height="18" rx="9" fill="#dceaff" opacity=".22" />
  <rect x="626" y="302" width="196" height="18" rx="9" fill="#dceaff" opacity=".22" />
  <rect x="136" y="424" width="640" height="18" rx="9" fill="#dceaff" opacity=".16" />
  <rect x="136" y="464" width="420" height="18" rx="9" fill="#68b4ff" opacity=".7" />
  <rect x="136" y="504" width="300" height="18" rx="9" fill="#1fc7b3" opacity=".74" />
  <rect x="804" y="420" width="24" height="122" rx="12" fill="#1fc7b3" opacity=".72" />
</svg>
