<svg xmlns="http://www.w3.org/2000/svg" viewBox="0 0 960 640">
  <rect width="960" height="640" rx="36" fill="#081526" />
  <rect x="42" y="42" width="876" height="556" rx="28" fill="#10233c" stroke="#24445f" />
  <rect x="90" y="100" width="270" height="44" rx="22" fill="#1fc7b3" opacity=".18" />
  <rect x="90" y="186" width="400" height="334" rx="26" fill="#0c1b2f" />
  <path d="M188 394c42-86 98-138 168-138 90 0 160 64 160 160 0 104-74 176-190 176-100 0-168-68-168-154 0-22 4-34 30-44Z" fill="#f3cdbf" />
  <circle cx="340" cy="330" r="46" fill="#fae1d6" />
  <rect x="550" y="184" width="282" height="84" rx="22" fill="#122944" />
  <rect x="550" y="296" width="282" height="84" rx="22" fill="#122944" />
  <rect x="550" y="408" width="282" height="84" rx="22" fill="#122944" />
  <rect x="580" y="212" width="178" height="20" rx="10" fill="#68b4ff" opacity=".82" />
  <rect x="580" y="324" width="144" height="18" rx="9" fill="#1fc7b3" opacity=".82" />
  <rect x="580" y="436" width="198" height="18" rx="9" fill="#dceaff" opacity=".22" />
  <circle cx="798" cy="226" r="20" fill="#68b4ff" opacity=".32" />
  <circle cx="798" cy="338" r="20" fill="#1fc7b3" opacity=".32" />
  <circle cx="798" cy="450" r="20" fill="#dceaff" opacity=".18" />
</svg>
