<svg width="1200" height="630" viewBox="0 0 1200 630" fill="none" xmlns="http://www.w3.org/2000/svg" role="img" aria-labelledby="title desc">
  <title id="title">CareMirror 預設 OG 圖</title>
  <desc id="desc">CareMirror 照護之鏡的預設社群分享圖，展示品牌名稱、中文品牌與醫療科技風格圖形。</desc>
  <rect width="1200" height="630" fill="#05111F"/>
  <rect width="1200" height="630" fill="url(#bg)"/>
  <circle cx="930" cy="102" r="184" fill="url(#glowA)" opacity="0.9"/>
  <circle cx="300" cy="0" r="240" fill="url(#glowB)" opacity="0.9"/>
  <rect x="64" y="64" width="1072" height="502" rx="36" fill="rgba(10, 23, 40, 0.84)" stroke="rgba(207, 228, 255, 0.14)"/>
  <g opacity="0.42">
    <path d="M742 154H1066" stroke="#45C7D6" stroke-width="2"/>
    <path d="M742 198H1098" stroke="#1C77C8" stroke-width="2"/>
    <path d="M742 242H1024" stroke="#56A8FF" stroke-width="2"/>
  </g>
  <rect x="112" y="126" width="96" height="96" rx="28" fill="url(#mark)"/>
  <path d="M145 164C145 145.804 159.804 131 178 131C196.196 131 211 145.804 211 164V173H193V164C193 155.163 186.837 149 178 149C169.163 149 163 155.163 163 164V188C163 196.837 169.163 203 178 203C184.347 203 189.867 199.307 192.467 194H211.999C208.026 207.987 194.951 218 178 218C159.804 218 145 203.196 145 185V164Z" fill="#F5F9FF"/>
  <text x="240" y="182" fill="#F5F9FF" font-size="64" font-weight="700" font-family="'Noto Sans TC', 'PingFang TC', 'Microsoft JhengHei', sans-serif">CareMirror</text>
  <text x="112" y="286" fill="#CFE4FF" font-size="30" font-weight="600" font-family="'Noto Sans TC', 'PingFang TC', 'Microsoft JhengHei', sans-serif">照護之鏡</text>
  <text x="112" y="344" fill="#9DB1C7" font-size="22" font-weight="500" font-family="'Noto Sans TC', 'PingFang TC', 'Microsoft JhengHei', sans-serif">以可驗證的教學流程、可回顧的操作紀錄與可持續擴充的內容架構，建立正式展示與教學溝通基礎。</text>
  <g>
    <rect x="112" y="412" width="162" height="48" rx="24" fill="rgba(86, 168, 255, 0.16)" stroke="rgba(159, 208, 255, 0.24)"/>
    <text x="193" y="443" text-anchor="middle" fill="#D7E4F3" font-size="18" font-weight="700" font-family="'Inter', 'Noto Sans TC', sans-serif">Medical Education</text>
    <rect x="290" y="412" width="146" height="48" rx="24" fill="rgba(69, 199, 214, 0.14)" stroke="rgba(147, 239, 245, 0.22)"/>
    <text x="363" y="443" text-anchor="middle" fill="#D7E4F3" font-size="18" font-weight="700" font-family="'Inter', 'Noto Sans TC', sans-serif">Quest 3</text>
    <rect x="452" y="412" width="168" height="48" rx="24" fill="rgba(255,255,255,0.05)" stroke="rgba(207,228,255,0.12)"/>
    <text x="536" y="443" text-anchor="middle" fill="#D7E4F3" font-size="18" font-weight="700" font-family="'Inter', 'Noto Sans TC', sans-serif">AAR Review</text>
  </g>
  <g>
    <rect x="742" y="334" width="318" height="150" rx="28" fill="rgba(255,255,255,0.04)" stroke="rgba(207,228,255,0.1)"/>
    <text x="774" y="378" fill="#93EFF5" font-size="18" font-weight="700" font-family="'Inter', 'Noto Sans TC', sans-serif">BRAND FOUNDATION</text>
    <text x="774" y="420" fill="#F5F9FF" font-size="30" font-weight="700" font-family="'Noto Sans TC', 'PingFang TC', 'Microsoft JhengHei', sans-serif">產品介紹</text>
    <text x="774" y="456" fill="#F5F9FF" font-size="30" font-weight="700" font-family="'Noto Sans TC', 'PingFang TC', 'Microsoft JhengHei', sans-serif">技術能力</text>
    <text x="774" y="492" fill="#F5F9FF" font-size="30" font-weight="700" font-family="'Noto Sans TC', 'PingFang TC', 'Microsoft JhengHei', sans-serif">開發過程</text>
  </g>
  <defs>
    <linearGradient id="bg" x1="168" y1="48" x2="1016" y2="630" gradientUnits="userSpaceOnUse">
      <stop stop-color="#06131F"/>
      <stop offset="0.55" stop-color="#0A1930"/>
      <stop offset="1" stop-color="#040915"/>
    </linearGradient>
    <radialGradient id="glowA" cx="0" cy="0" r="1" gradientUnits="userSpaceOnUse" gradientTransform="translate(930 102) rotate(90) scale(184)">
      <stop stop-color="#45C7D6" stop-opacity="0.42"/>
      <stop offset="1" stop-color="#45C7D6" stop-opacity="0"/>
    </radialGradient>
    <radialGradient id="glowB" cx="0" cy="0" r="1" gradientUnits="userSpaceOnUse" gradientTransform="translate(300 0) rotate(90) scale(240)">
      <stop stop-color="#56A8FF" stop-opacity="0.35"/>
      <stop offset="1" stop-color="#56A8FF" stop-opacity="0"/>
    </radialGradient>
    <linearGradient id="mark" x1="112" y1="126" x2="208" y2="222" gradientUnits="userSpaceOnUse">
      <stop stop-color="#56A8FF"/>
      <stop offset="1" stop-color="#45C7D6"/>
    </linearGradient>
  </defs>
</svg>
